<?xml version="1.0" encoding="UTF-8"?>
<!--Generator: Apple Native CoreSVG 175.5-->
<!DOCTYPE svg
PUBLIC "-//W3C//DTD SVG 1.1//EN"
       "http://www.w3.org/Graphics/SVG/1.1/DTD/svg11.dtd">
<svg version="1.1" xmlns="http://www.w3.org/2000/svg" xmlns:xlink="http://www.w3.org/1999/xlink" width="1.69629" height="1.04004">
 <g>
  <rect height="1.04004" opacity="0" width="1.69629" x="0" y="0"/>
  <path d="M0.848633 1.04004C0.873047 1.04004 0.897461 1.03027 0.914062 1.01172L1.66992 0.237305C1.68652 0.220703 1.69629 0.199219 1.69629 0.174805C1.69629 0.124023 1.6582 0.0849609 1.60742 0.0849609C1.58301 0.0849609 1.56055 0.0947266 1.54395 0.110352L0.795898 0.875L0.900391 0.875L0.152344 0.110352C0.136719 0.0947266 0.114258 0.0849609 0.0888672 0.0849609C0.0380859 0.0849609 0 0.124023 0 0.174805C0 0.199219 0.00976562 0.220703 0.0263672 0.238281L0.782227 1.01172C0.800781 1.03027 0.823242 1.04004 0.848633 1.04004Z" fill="#FF4785" fill-opacity="0.85"/>
 </g>
</svg>

