<?xml version="1.0" encoding="UTF-8"?>
<!--Generator: Apple Native CoreSVG 175.5-->
<!DOCTYPE svg
PUBLIC "-//W3C//DTD SVG 1.1//EN"
       "http://www.w3.org/Graphics/SVG/1.1/DTD/svg11.dtd">
<svg version="1.1" xmlns="http://www.w3.org/2000/svg" xmlns:xlink="http://www.w3.org/1999/xlink" width="1.54859" height="1.54956">
 <g>
  <rect height="1.54956" opacity="0" width="1.54859" x="0" y="0"/>
  <path d="M0.0252699 1.52429C0.0594496 1.5575 0.11609 1.5575 0.149293 1.52429L0.774293 0.899293L1.39929 1.52429C1.4325 1.5575 1.49011 1.55847 1.52332 1.52429C1.55652 1.49011 1.55652 1.43445 1.52332 1.40125L0.898317 0.77527L1.52332 0.15027C1.55652 0.117067 1.5575 0.0604261 1.52332 0.027223C1.48914-0.00695668 1.4325-0.00695668 1.39929 0.027223L0.774293 0.652223L0.149293 0.027223C0.11609-0.00695668 0.058473-0.00793324 0.0252699 0.027223C-0.00793324 0.0614027-0.00793324 0.117067 0.0252699 0.15027L0.65027 0.77527L0.0252699 1.40125C-0.00793324 1.43445-0.00890981 1.49109 0.0252699 1.52429Z" fill="#FF4785"/>
 </g>
</svg>
