<?xml version="1.0" encoding="UTF-8"?>
<!--Generator: Apple Native CoreSVG 175.5-->
<!DOCTYPE svg
PUBLIC "-//W3C//DTD SVG 1.1//EN"
       "http://www.w3.org/Graphics/SVG/1.1/DTD/svg11.dtd">
<svg version="1.1" xmlns="http://www.w3.org/2000/svg" xmlns:xlink="http://www.w3.org/1999/xlink" width="2.04688" height="1.86621">
 <g>
  <rect height="1.86621" opacity="0" width="2.04688" x="0" y="0"/>
  <path d="M0.266602 1.85547L1.78027 1.85547C1.94629 1.85547 2.04688 1.74023 2.04688 1.59082C2.04688 1.54492 2.0332 1.49707 2.00879 1.4541L1.25098 0.133789C1.2002 0.0449219 1.11328 0 1.02344 0C0.933594 0 0.845703 0.0449219 0.795898 0.133789L0.0380859 1.4541C0.0117188 1.49805 0 1.54492 0 1.59082C0 1.74023 0.100586 1.85547 0.266602 1.85547ZM0.267578 1.70215C0.199219 1.70215 0.158203 1.64941 0.158203 1.58984C0.158203 1.57129 0.162109 1.54785 0.172852 1.52734L0.929688 0.208008C0.950195 0.171875 0.987305 0.15625 1.02344 0.15625C1.05957 0.15625 1.0957 0.171875 1.11621 0.208008L1.87305 1.52832C1.88379 1.54883 1.88867 1.57129 1.88867 1.58984C1.88867 1.64941 1.8457 1.70215 1.77832 1.70215Z" fill="#f1c21b"/>
  <path d="M1.02344 1.19727C1.07031 1.19727 1.09766 1.16992 1.09863 1.11914L1.1123 0.604492C1.11328 0.554688 1.07422 0.517578 1.02246 0.517578C0.969727 0.517578 0.932617 0.553711 0.933594 0.603516L0.946289 1.11914C0.947266 1.16895 0.974609 1.19727 1.02344 1.19727ZM1.02344 1.51465C1.08008 1.51465 1.12891 1.46973 1.12891 1.41309C1.12891 1.35547 1.08105 1.31152 1.02344 1.31152C0.96582 1.31152 0.917969 1.35645 0.917969 1.41309C0.917969 1.46875 0.966797 1.51465 1.02344 1.51465Z" fill="#f1c21b"/>
 </g>
</svg>
